<svg width="16" height="14" viewBox="0 0 16 14" fill="none" xmlns="http://www.w3.org/2000/svg">
<g clip-path="url(#clip0)">
<path d="M13.2248 1.25211C13.4798 1.01014 13.8263 0.872905 14.1886 0.870396C14.5509 0.867887 14.8995 1.00031 15.1583 1.23872C15.417 1.47714 15.5649 1.80215 15.5695 2.14274C15.5741 2.48333 15.4352 2.8118 15.183 3.05636L7.88623 11.6322C7.76088 11.7591 7.60961 11.861 7.44147 11.9317C7.27332 12.0024 7.09175 12.0405 6.90758 12.0438C6.72342 12.047 6.54044 12.0154 6.36958 11.9507C6.19872 11.886 6.04347 11.7896 5.91312 11.6672L1.07528 7.12074C0.818196 6.87893 0.673817 6.55101 0.673904 6.20912C0.673992 5.86722 0.818538 5.53937 1.07575 5.29767C1.33295 5.05598 1.68175 4.92024 2.04541 4.92032C2.40907 4.92041 2.7578 5.0563 3.01488 5.29811L6.84104 8.89611L13.1885 1.29236C13.2 1.27853 13.2125 1.26538 13.2257 1.25299L13.2248 1.25211Z" fill="#19B6FE"/>
</g>
<defs>
<clipPath id="clip0">
<rect width="14.8914" height="14" fill="white" transform="translate(0.674164)"/>
</clipPath>
</defs>
</svg>
